<svg width="27" height="30" viewBox="0 0 27 30" fill="none" xmlns="http://www.w3.org/2000/svg">
<g clip-path="url(#clip0_25164_111)">
<path fill-rule="evenodd" clip-rule="evenodd" d="M4.32687 34.1174L12.2419 29.4122C12.6847 29.149 12.7561 28.6896 12.8276 28.2303C12.899 27.771 12.9705 27.3116 13.4134 27.0486C13.8061 26.8153 14.2713 26.9569 14.7357 27.0982C15.1987 27.2391 15.6608 27.3798 16.0495 27.1487L22.921 23.0639L22.9208 20.942L17.8052 23.9831C16.9699 24.4797 15.8977 24.0112 14.9117 23.5804C14.0727 23.2138 13.2961 22.8745 12.7813 23.1806C12.2876 23.4741 12.2312 24.0895 12.1737 24.7175C12.1138 25.3715 12.0527 26.0392 11.4949 26.3708C10.3328 27.0616 5.70499 29.7994 1.23758 32.4373L4.32687 34.1174ZM34.2826 20.2506L15.9887 31.1257C15.6725 31.3136 15.15 31.1208 14.5968 30.9167C13.9743 30.687 13.3128 30.4429 12.8623 30.7107C12.451 30.9552 12.3276 31.4537 12.2001 31.9687C12.0639 32.5189 11.923 33.0879 11.4214 33.386L-4.92021 43.1006L-3.52218 45.4523L12.0355 36.2038C12.4395 35.9637 12.5083 35.4859 12.5721 35.0434C12.6271 34.6616 12.6783 34.3061 12.9376 34.1519C13.2515 33.9653 13.671 34.1128 14.118 34.2699C14.6281 34.4492 15.1742 34.6411 15.6403 34.364L35.614 22.4903L34.2826 20.2506Z" fill="white"/>
<path fill-rule="evenodd" clip-rule="evenodd" d="M4.32687 34.1174L12.2419 29.4122C12.6847 29.149 12.7561 28.6896 12.8276 28.2303C12.899 27.771 12.9705 27.3116 13.4134 27.0486C13.8061 26.8153 14.2713 26.9569 14.7357 27.0982C15.1987 27.2391 15.6608 27.3798 16.0495 27.1487L22.921 23.0639L22.9208 20.942L17.8052 23.9831C16.9699 24.4797 15.8977 24.0112 14.9117 23.5804C14.0727 23.2138 13.2961 22.8745 12.7813 23.1806C12.2876 23.4741 12.2312 24.0895 12.1737 24.7175C12.1138 25.3715 12.0527 26.0392 11.4949 26.3708C10.3328 27.0616 5.70499 29.7994 1.23758 32.4373L4.32687 34.1174ZM34.2826 20.2506L15.9887 31.1257C15.6725 31.3136 15.15 31.1208 14.5968 30.9167C13.9743 30.687 13.3128 30.4429 12.8623 30.7107C12.451 30.9552 12.3276 31.4537 12.2001 31.9687C12.0639 32.5189 11.923 33.0879 11.4214 33.386L-4.92021 43.1006L-3.52218 45.4523L12.0355 36.2038C12.4395 35.9637 12.5083 35.4859 12.5721 35.0434C12.6271 34.6616 12.6783 34.3061 12.9376 34.1519C13.2515 33.9653 13.671 34.1128 14.118 34.2699C14.6281 34.4492 15.1742 34.6411 15.6403 34.364L35.614 22.4903L34.2826 20.2506Z" fill="url(#paint0_linear_25164_111)"/>
<path fill-rule="evenodd" clip-rule="evenodd" d="M15.989 15.3957L34.2835 4.52163L35.6148 6.76147L15.6404 18.634C15.1743 18.9111 14.6282 18.7191 14.1182 18.5398C13.6711 18.3826 13.2516 18.2352 12.9378 18.4217C12.6784 18.5759 12.6272 18.9314 12.5722 19.3132C12.5084 19.7557 12.4395 20.2335 12.0355 20.4736L-3.52272 29.7212L-4.92061 27.3694L11.4216 17.6558C11.9232 17.3576 12.0641 16.7887 12.2003 16.2385C12.3278 15.7235 12.4513 15.225 12.8626 14.9805C13.3131 14.7128 13.9746 14.9569 14.5971 15.1866C15.1503 15.3908 15.6728 15.5836 15.989 15.3957Z" fill="white"/>
<path fill-rule="evenodd" clip-rule="evenodd" d="M15.989 15.3957L34.2835 4.52163L35.6148 6.76147L15.6404 18.634C15.1743 18.9111 14.6282 18.7191 14.1182 18.5398C13.6711 18.3826 13.2516 18.2352 12.9378 18.4217C12.6784 18.5759 12.6272 18.9314 12.5722 19.3132C12.5084 19.7557 12.4395 20.2335 12.0355 20.4736L-3.52272 29.7212L-4.92061 27.3694L11.4216 17.6558C11.9232 17.3576 12.0641 16.7887 12.2003 16.2385C12.3278 15.7235 12.4513 15.225 12.8626 14.9805C13.3131 14.7128 13.9746 14.9569 14.5971 15.1866C15.1503 15.3908 15.6728 15.5836 15.989 15.3957Z" fill="url(#paint1_linear_25164_111)"/>
<path d="M31.6208 0.0418432L17.8059 8.25321C16.9706 8.74974 15.8984 8.2812 14.9125 7.85036C14.0734 7.48371 13.2969 7.14436 12.782 7.45041C12.2883 7.74386 12.2319 8.35931 12.1744 8.98727C12.1144 9.64132 12.0532 10.3089 11.4954 10.6405C10.2434 11.3847 4.96838 14.5047 0.205258 17.3159C-3.78478 19.6708 -7.4156 21.8091 -8.02147 22.1525L-6.45176 24.7935L0.205258 20.8366L12.2423 13.682C12.6851 13.4188 12.7566 12.9595 12.828 12.5002C12.8995 12.0408 12.971 11.5814 13.4139 11.3184C13.8066 11.0852 14.2718 11.2268 14.7362 11.3682C15.1992 11.5091 15.6613 11.6497 16.05 11.4187L32.5527 1.60973L31.6208 0.0418432Z" fill="white"/>
<path d="M31.6208 0.0418432L17.8059 8.25321C16.9706 8.74974 15.8984 8.2812 14.9125 7.85036C14.0734 7.48371 13.2969 7.14436 12.782 7.45041C12.2883 7.74386 12.2319 8.35931 12.1744 8.98727C12.1144 9.64132 12.0532 10.3089 11.4954 10.6405C10.2434 11.3847 4.96838 14.5047 0.205258 17.3159C-3.78478 19.6708 -7.4156 21.8091 -8.02147 22.1525L-6.45176 24.7935L0.205258 20.8366L12.2423 13.682C12.6851 13.4188 12.7566 12.9595 12.828 12.5002C12.8995 12.0408 12.971 11.5814 13.4139 11.3184C13.8066 11.0852 14.2718 11.2268 14.7362 11.3682C15.1992 11.5091 15.6613 11.6497 16.05 11.4187L32.5527 1.60973L31.6208 0.0418432Z" fill="url(#paint2_linear_25164_111)"/>
<path fill-rule="evenodd" clip-rule="evenodd" d="M-6.45151 9.0648L-8.02137 6.42395C-6.69229 5.67045 9.19407 -3.72146 11.4949 -5.0892C12.0527 -5.42079 12.1138 -6.08842 12.1737 -6.74247C12.2312 -7.37044 12.2876 -7.98589 12.7813 -8.27937C13.2961 -8.58545 14.0727 -8.24615 14.9117 -7.87954C15.8977 -7.44876 16.9699 -6.98028 17.8052 -7.47686L31.6196 -15.689L32.5516 -14.1212L16.0495 -4.31127C15.6608 -4.0802 15.1987 -4.22083 14.7357 -4.36171C14.2713 -4.50304 13.8061 -4.64461 13.4134 -4.4114C12.9705 -4.14835 12.899 -3.689 12.8276 -3.22962C12.7561 -2.77031 12.6847 -2.31098 12.2419 -2.04779L-6.45151 9.0648ZM15.9887 -0.334308L22.1025 -3.96877L24.7654 -2.52051L15.6403 2.90405C15.1742 3.18115 14.6281 2.98923 14.118 2.80994C13.671 2.6528 13.2515 2.50536 12.9376 2.69193C12.6783 2.84609 12.6271 3.20164 12.5721 3.5834C12.5083 4.02594 12.4395 4.5037 12.0355 4.74384L3.31097 9.93029L3.31097 6.74746L11.4214 1.92608C11.923 1.62791 12.0639 1.05893 12.2001 0.508749C12.3276 -0.00622635 12.451 -0.504722 12.8623 -0.749238C13.3128 -1.01701 13.9743 -0.772943 14.5968 -0.543252C15.15 -0.339125 15.6725 -0.146358 15.9887 -0.334308Z" fill="white"/>
<path fill-rule="evenodd" clip-rule="evenodd" d="M-6.45151 9.0648L-8.02137 6.42395C-6.69229 5.67045 9.19407 -3.72146 11.4949 -5.0892C12.0527 -5.42079 12.1138 -6.08842 12.1737 -6.74247C12.2312 -7.37044 12.2876 -7.98589 12.7813 -8.27937C13.2961 -8.58545 14.0727 -8.24615 14.9117 -7.87954C15.8977 -7.44876 16.9699 -6.98028 17.8052 -7.47686L31.6196 -15.689L32.5516 -14.1212L16.0495 -4.31127C15.6608 -4.0802 15.1987 -4.22083 14.7357 -4.36171C14.2713 -4.50304 13.8061 -4.64461 13.4134 -4.4114C12.9705 -4.14835 12.899 -3.689 12.8276 -3.22962C12.7561 -2.77031 12.6847 -2.31098 12.2419 -2.04779L-6.45151 9.0648ZM15.9887 -0.334308L22.1025 -3.96877L24.7654 -2.52051L15.6403 2.90405C15.1742 3.18115 14.6281 2.98923 14.118 2.80994C13.671 2.6528 13.2515 2.50536 12.9376 2.69193C12.6783 2.84609 12.6271 3.20164 12.5721 3.5834C12.5083 4.02594 12.4395 4.5037 12.0355 4.74384L3.31097 9.93029L3.31097 6.74746L11.4214 1.92608C11.923 1.62791 12.0639 1.05893 12.2001 0.508749C12.3276 -0.00622635 12.451 -0.504722 12.8623 -0.749238C13.3128 -1.01701 13.9743 -0.772943 14.5968 -0.543252C15.15 -0.339125 15.6725 -0.146358 15.9887 -0.334308Z" fill="url(#paint3_linear_25164_111)"/>
</g>
<defs>
<linearGradient id="paint0_linear_25164_111" x1="6.97294" y1="39.1606" x2="16.581" y2="15.7767" gradientUnits="userSpaceOnUse">
<stop stop-color="#F7851E"/>
<stop offset="0.505" stop-color="#FFCD1F"/>
<stop offset="1" stop-color="#F7851E"/>
</linearGradient>
<linearGradient id="paint1_linear_25164_111" x1="6.97277" y1="23.43" x2="16.5822" y2="0.0467844" gradientUnits="userSpaceOnUse">
<stop stop-color="#F7851E"/>
<stop offset="0.505" stop-color="#FFCD1F"/>
<stop offset="1" stop-color="#F7851E"/>
</linearGradient>
<linearGradient id="paint2_linear_25164_111" x1="6.97277" y1="23.43" x2="16.5822" y2="0.0467844" gradientUnits="userSpaceOnUse">
<stop stop-color="#F7851E"/>
<stop offset="0.505" stop-color="#FFCD1F"/>
<stop offset="1" stop-color="#F7851E"/>
</linearGradient>
<linearGradient id="paint3_linear_25164_111" x1="6.97294" y1="7.70059" x2="16.581" y2="-15.6832" gradientUnits="userSpaceOnUse">
<stop stop-color="#F7851E"/>
<stop offset="0.505" stop-color="#FFCD1F"/>
<stop offset="1" stop-color="#F7851E"/>
</linearGradient>
<clipPath id="clip0_25164_111">
<rect width="26.0217" height="29.7391" fill="white" transform="translate(0.260742 0.130859)"/>
</clipPath>
</defs>
</svg>
